<?xml version="1.0" standalone="no"?>
<!DOCTYPE svg PUBLIC "-//W3C//DTD SVG 20010904//EN"
 "http://www.w3.org/TR/2001/REC-SVG-20010904/DTD/svg10.dtd">
<svg version="1.0" xmlns="http://www.w3.org/2000/svg"
 width="140.000000pt" height="140.000000pt" viewBox="0 0 140.000000 140.000000"
 preserveAspectRatio="xMidYMid meet">
<metadata>
Created by potrace 1.11, written by Peter Selinger 2001-2013
</metadata>
<g transform="translate(0.000000,140.000000) scale(0.100000,-0.100000)"
fill="#000000" stroke="none">
<path d="M23 1062 c-10 -26 -8 -732 2 -733 13 0 1245 0 1313 0 l52 1 0 370 c0
204 -3 370 -7 370 -5 1 -311 2 -682 3 -539 2 -675 -1 -678 -11z m1288 -61 c14
-1 16 -32 17 -283 0 -156 -1 -292 -3 -303 -4 -20 -12 -20 -615 -19 -336 1
-613 4 -616 6 -4 4 -7 465 -4 580 0 9 8 18 17 20 13 2 1141 1 1204 -1z"/>
<path d="M843 912 c-4 -9 -44 -108 -90 -220 -46 -112 -83 -205 -83 -208 0 -2
9 -4 20 -4 21 0 28 13 105 200 26 63 58 138 71 167 29 63 29 69 3 76 -13 4
-22 0 -26 -11z"/>
<path d="M1080 873 c0 -19 -5 -23 -30 -23 -28 0 -30 -3 -30 -35 0 -32 2 -35
30 -35 l30 0 0 -135 0 -135 35 0 35 0 -2 192 -3 191 -32 2 c-28 1 -33 -2 -33
-22z"/>
<path d="M315 866 c-41 -18 -83 -60 -99 -98 -18 -41 -12 -133 10 -166 102
-156 335 -96 341 87 1 58 -18 111 -54 143 -49 45 -139 60 -198 34z m125 -71
c54 -28 75 -98 45 -154 -14 -28 -68 -61 -100 -61 -35 0 -84 32 -100 67 -48
100 56 199 155 148z"/>
</g>
</svg>
