<svg width="146" height="37" viewBox="0 0 146 37" xmlns="http://www.w3.org/2000/svg" xmlns:xlink="http://www.w3.org/1999/xlink"><defs><path id="a" d="M0 36.947h145.937V.407H0z"/></defs><g fill="none" fill-rule="evenodd"><path fill="#48484A" d="M87.688 19.18h2.757V8.499h3.74V6.035H83.927v2.463h3.76zm18.119-2.463h-6.362v-2.976h6.227v-2.463h-6.227v-2.78h6.362V6.035h-9.1V19.18h9.1z"/><g transform="translate(0 .085)"><path d="M114.325 11.961c1.099 0 1.928-.67 1.928-1.773 0-1.104-.83-1.774-1.928-1.774h-2.872v3.547h2.872zm4.723-1.773c0 2.325-1.426 3.567-2.814 3.902l2.891 5.006h-3.142l-2.525-4.67h-2.005v4.67h-2.738V5.95h6.015c2.68 0 4.318 1.794 4.318 4.238zm8.442 1.773h-2.873V8.414h2.873c1.099 0 1.928.67 1.928 1.774s-.83 1.773-1.928 1.773m4.723-1.773c0-2.444-1.639-4.238-4.318-4.238h-6.015v13.146h2.737v-4.67h2.005l2.526 4.67h3.142l-2.89-5.006c1.387-.335 2.814-1.577 2.814-3.902m10.6-4.238l-3.162 5.282-3.2-5.282h-3.124l4.955 7.765v5.381h2.738v-5.38l4.915-7.766zm-54.01 20.514c0-.433.36-.727 1.007-.727.721 0 1.484.25 2.057.792l.838-1.127c-.7-.662-1.633-1.009-2.757-1.009-1.665 0-2.682.998-2.682 2.201 0 2.72 4.07 1.843 4.07 3.122 0 .412-.402.802-1.229.802a3.07 3.07 0 0 1-2.248-.976l-.816 1.171c.657.683 1.633 1.15 2.99 1.15 1.909 0 2.83-.998 2.83-2.32 0-2.7-4.06-1.93-4.06-3.079m8.852 4.032c-1.304 0-2.141-1.03-2.141-2.374 0-1.354.837-2.373 2.14-2.373 1.305 0 2.153 1.019 2.153 2.373 0 1.345-.848 2.374-2.152 2.374m0-6.113c-2.131 0-3.69 1.56-3.69 3.74 0 2.178 1.559 3.739 3.69 3.739 2.141 0 3.7-1.56 3.7-3.74 0-2.178-1.559-3.74-3.7-3.74m8.534 6.114c-1.304 0-2.142-1.03-2.142-2.374 0-1.354.838-2.373 2.141-2.373 1.304 0 2.153 1.019 2.153 2.373 0 1.345-.849 2.374-2.153 2.374m0-6.113c-2.13 0-3.69 1.56-3.69 3.74 0 2.178 1.56 3.739 3.69 3.739 2.142 0 3.7-1.56 3.7-3.74 0-2.178-1.558-3.74-3.7-3.74m4.494 1.475h2.068v5.875h1.516v-5.875h2.057v-1.355h-5.64z" fill="#48484A"/><mask id="b" fill="#fff"><use xlink:href="#a"/></mask><path d="M3.212 33.663H63.09V3.693H3.212v29.97zM0 36.947h66.302V.407H0v36.54z" fill="#48484A" mask="url(#b)"/><path fill="#48484A" mask="url(#b)" d="M51.132 11.422h-2.878v3.284h2.878v13.171h3.167V9.221h-3.167zM17.669 24.661c-3.1 0-5.622-2.577-5.622-5.747s2.521-5.747 5.622-5.747c3.1 0 5.622 2.578 5.622 5.747 0 3.17-2.521 5.747-5.622 5.747m0-14.779c-4.87 0-8.834 4.052-8.834 9.032s3.963 9.032 8.834 9.032c4.87 0 8.834-4.052 8.834-9.032S22.54 9.882 17.67 9.882m13.685 19.456h1.995L42.133 7.76h-2.139z"/></g></g></svg>